<svg width="42" height="42" viewBox="0 0 42 42" fill="none" xmlns="http://www.w3.org/2000/svg">
<circle cx="21" cy="21" r="21" fill="#373639"/>
<path d="M26.3574 23.0669C26.9175 22.6716 26.9233 21.8429 26.3687 21.4405L17.6878 15.1418C17.0294 14.6641 16.1059 15.1312 16.1003 15.945L16.0134 28.431C16.0077 29.2448 16.9246 29.7236 17.5896 29.2543L26.3574 23.0669Z" fill="#D9D9D9"/>
<path d="M22.5746 28.969C21.9497 29.4097 21.103 29.0136 21.0076 28.2893L28.7986 22.7904C29.3583 22.3951 29.3644 21.5668 28.8101 21.1644L21.0929 15.5652C21.166 14.8107 22.0407 14.3973 22.6733 14.8562L31.3541 21.1549C31.9085 21.5573 31.9025 22.3856 31.3426 22.7809L22.5746 28.969Z" fill="#D9D9D9"/>
</svg>
