<svg width="107" height="42" viewBox="0 0 107 42" fill="none" xmlns="http://www.w3.org/2000/svg">
<rect width="107" height="42" rx="16" fill="#373639"/>
<circle cx="27.5" cy="21.5" r="12.5" fill="#C04C4C"/>
<path d="M49.6992 28V13.9082H55.0508C55.9557 13.9082 56.7435 14.084 57.4141 14.4355C58.0911 14.7806 58.6152 15.2656 58.9863 15.8906C59.3574 16.5156 59.543 17.2513 59.543 18.0977V18.1172C59.543 19.0938 59.2923 19.9401 58.791 20.6562C58.2897 21.3724 57.5964 21.8704 56.7109 22.1504L59.9727 28H57.9121L54.8945 22.4238C54.8815 22.4238 54.8652 22.4238 54.8457 22.4238C54.8262 22.4238 54.8099 22.4238 54.7969 22.4238H51.457V28H49.6992ZM51.457 20.8613H54.8945C55.7995 20.8613 56.4961 20.6302 56.9844 20.168C57.4792 19.6992 57.7266 19.0352 57.7266 18.1758V18.1562C57.7266 17.3164 57.4694 16.6589 56.9551 16.1836C56.4408 15.7083 55.7279 15.4707 54.8164 15.4707H51.457V20.8613ZM66.3398 28.1855C65.3438 28.1855 64.4876 27.9674 63.7715 27.5312C63.0553 27.0885 62.5052 26.4668 62.1211 25.666C61.737 24.8587 61.5449 23.9082 61.5449 22.8145V22.8047C61.5449 21.7305 61.737 20.7865 62.1211 19.9727C62.5052 19.1589 63.0488 18.5241 63.752 18.0684C64.4616 17.6061 65.2884 17.375 66.2324 17.375C67.1764 17.375 67.9902 17.5964 68.6738 18.0391C69.3574 18.4753 69.8815 19.0872 70.2461 19.875C70.6107 20.6562 70.793 21.5677 70.793 22.6094V23.2637H62.4141V21.9062H69.9336L69.0938 23.1465V22.4824C69.0938 21.6621 68.9701 20.9883 68.7227 20.4609C68.4753 19.9336 68.1367 19.5397 67.707 19.2793C67.2773 19.0189 66.7826 18.8887 66.2227 18.8887C65.6628 18.8887 65.1615 19.0254 64.7188 19.2988C64.276 19.5723 63.9245 19.9759 63.6641 20.5098C63.4102 21.0436 63.2832 21.7012 63.2832 22.4824V23.1465C63.2832 23.8887 63.4069 24.5234 63.6543 25.0508C63.9082 25.5716 64.2663 25.972 64.7285 26.252C65.1973 26.5319 65.7474 26.6719 66.3789 26.6719C66.8411 26.6719 67.2448 26.6068 67.5898 26.4766C67.9414 26.3464 68.2311 26.1803 68.459 25.9785C68.6868 25.7702 68.8464 25.5521 68.9375 25.3242L68.9766 25.2363H70.666L70.6465 25.3145C70.5618 25.6855 70.4023 26.0436 70.168 26.3887C69.9336 26.7272 69.6341 27.0332 69.2695 27.3066C68.9049 27.5801 68.4753 27.7949 67.9805 27.9512C67.4857 28.1074 66.9388 28.1855 66.3398 28.1855ZM77.502 28.1855C76.5254 28.1855 75.6758 27.9642 74.9531 27.5215C74.237 27.0723 73.6803 26.444 73.2832 25.6367C72.8926 24.8229 72.6973 23.8626 72.6973 22.7559V22.7363C72.6973 21.6491 72.8926 20.7051 73.2832 19.9043C73.6803 19.1035 74.237 18.4818 74.9531 18.0391C75.6693 17.5964 76.5156 17.375 77.4922 17.375C78.3451 17.375 79.0775 17.528 79.6895 17.834C80.3079 18.14 80.7995 18.5469 81.1641 19.0547C81.5286 19.5625 81.7598 20.1224 81.8574 20.7344L81.8672 20.8027H80.1875L80.168 20.7637C80.0443 20.2428 79.7546 19.8001 79.2988 19.4355C78.8496 19.0645 78.2474 18.8789 77.4922 18.8789C76.8672 18.8789 76.3268 19.0384 75.8711 19.3574C75.4154 19.6699 75.0605 20.1159 74.8066 20.6953C74.5592 21.2747 74.4355 21.9583 74.4355 22.7461V22.7559C74.4355 23.5632 74.5625 24.2598 74.8164 24.8457C75.0703 25.4316 75.4251 25.8841 75.8809 26.2031C76.3431 26.5221 76.8802 26.6816 77.4922 26.6816C78.2018 26.6816 78.778 26.5254 79.2207 26.2129C79.6699 25.8939 79.9857 25.4414 80.168 24.8555L80.1875 24.7969L81.8672 24.7871L81.8477 24.8848C81.7174 25.5228 81.4668 26.0924 81.0957 26.5938C80.7246 27.0885 80.2396 27.4792 79.6406 27.7656C79.0417 28.0456 78.3288 28.1855 77.502 28.1855Z" fill="#E5E5E5"/>
</svg>
