<svg width="42" height="42" viewBox="0 0 42 42" fill="none" xmlns="http://www.w3.org/2000/svg">
<circle cx="21" cy="21" r="21" fill="#373639"/>
<path d="M16.2323 20.3863C15.6706 20.7796 15.6617 21.6082 16.2149 22.0127L24.8721 28.3437C25.5288 28.8239 26.454 28.3602 26.4627 27.5465L26.5962 15.0609C26.6049 14.2471 25.6898 13.7648 25.023 14.2317L16.2323 20.3863Z" fill="#D9D9D9"/>
<path d="M20.0371 14.498C20.6636 14.0597 21.5088 14.4589 21.6016 15.1836L13.79 20.6533C13.2289 21.0466 13.2197 21.8748 13.7725 22.2793L21.4688 27.9072C21.3928 28.6615 20.5166 29.0717 19.8857 28.6104L11.2285 22.2793C10.6756 21.8748 10.6847 21.0466 11.2461 20.6533L20.0371 14.498Z" fill="#D9D9D9"/>
</svg>
