<svg width="26" height="17" viewBox="0 0 26 17" fill="none" xmlns="http://www.w3.org/2000/svg">
<path d="M1 8.5C1 7.70916 1 7.31373 1.12218 6.99418C1.36263 6.3653 1.93358 5.87198 2.66142 5.66423C3.03126 5.55866 3.48891 5.55866 4.4042 5.55866H6.12698C6.46672 5.55866 6.63659 5.55866 6.79358 5.52151C6.93265 5.48859 7.0638 5.43447 7.18085 5.36169C7.31296 5.27955 7.41972 5.16539 7.63326 4.93706L9.66094 2.76899C10.718 1.63878 11.2465 1.07368 11.7095 1.01216C12.1103 0.95891 12.5154 1.08265 12.7884 1.34174C13.1038 1.64105 13.1038 2.3676 13.1038 3.82069V13.1793C13.1038 14.6324 13.1038 15.359 12.7884 15.6583C12.5154 15.9174 12.1103 16.0411 11.7095 15.9878C11.2465 15.9263 10.718 15.3612 9.66094 14.231L7.63326 12.0629C7.41972 11.8346 7.31296 11.7205 7.18085 11.6383C7.0638 11.5655 6.93265 11.5114 6.79358 11.4785C6.63659 11.4413 6.46672 11.4413 6.12698 11.4413H4.4042C3.48891 11.4413 3.03126 11.4413 2.66142 11.3358C1.93358 11.128 1.36263 10.6347 1.12218 10.0058C1 9.68627 1 9.29084 1 8.5Z" fill="#17E1FF"/>
<path fill-rule="evenodd" clip-rule="evenodd" d="M18.153 5.542L25 11.458Z" fill="#17E1FF"/>
<path fill-rule="evenodd" clip-rule="evenodd" d="M18.153 11.458L25 5.542Z" fill="#17E1FF"/>
<path d="M18.153 5.542L25 11.458M18.153 11.458L25 5.542M7.63326 12.0629L9.66094 14.231C10.718 15.3612 11.2465 15.9263 11.7095 15.9878C12.1103 16.0411 12.5154 15.9174 12.7884 15.6583C13.1038 15.359 13.1038 14.6324 13.1038 13.1793V3.82069C13.1038 2.3676 13.1038 1.64105 12.7884 1.34174C12.5154 1.08265 12.1103 0.95891 11.7095 1.01216C11.2465 1.07368 10.718 1.63878 9.66094 2.76899L7.63326 4.93706C7.41972 5.16539 7.31296 5.27955 7.18085 5.36169C7.0638 5.43447 6.93265 5.48859 6.79358 5.52151C6.63659 5.55866 6.46672 5.55866 6.12698 5.55866H4.4042C3.48891 5.55866 3.03126 5.55866 2.66142 5.66423C1.93358 5.87198 1.36263 6.3653 1.12218 6.99418C1 7.31373 1 7.70916 1 8.5C1 9.29084 1 9.68627 1.12218 10.0058C1.36263 10.6347 1.93358 11.128 2.66142 11.3358C3.03126 11.4413 3.48891 11.4413 4.4042 11.4413H6.12698C6.46672 11.4413 6.63659 11.4413 6.79358 11.4785C6.93265 11.5114 7.0638 11.5655 7.18085 11.6383C7.31296 11.7205 7.41972 11.8346 7.63326 12.0629Z" stroke="#17E1FF" stroke-width="2" stroke-linecap="round" stroke-linejoin="round"/>
</svg>
