<svg width="26" height="17" viewBox="0 0 26 17" fill="none" xmlns="http://www.w3.org/2000/svg">
<path d="M1 8.52459C1 7.74656 1 7.35755 1.12113 7.04317C1.35951 6.42449 1.92557 5.93917 2.64716 5.73478C3.01384 5.63092 3.46756 5.63092 4.375 5.63092H6.08299C6.41982 5.63092 6.58824 5.63092 6.74388 5.59438C6.88176 5.562 7.01179 5.50875 7.12782 5.43715C7.2588 5.35634 7.36465 5.24403 7.57636 5.0194L9.58664 2.88648C10.6346 1.77459 11.1586 1.21864 11.6176 1.15813C12.015 1.10574 12.4166 1.22747 12.6873 1.48236C13 1.77682 13 2.49159 13 3.92113V13.128C13 14.5576 13 15.2724 12.6873 15.5668C12.4166 15.8217 12.015 15.9434 11.6176 15.891C11.1586 15.8305 10.6346 15.2746 9.58664 14.1627L7.57636 12.0298C7.36465 11.8051 7.2588 11.6928 7.12782 11.612C7.01179 11.5404 6.88176 11.4872 6.74388 11.4548C6.58824 11.4182 6.41982 11.4182 6.08299 11.4182H4.375C3.46756 11.4182 3.01384 11.4182 2.64716 11.3144C1.92557 11.11 1.35951 10.6247 1.12113 10.006C1 9.69162 1 9.30261 1 8.52459Z" fill="#17E1FF"/>
<path d="M21.184 1C22.3829 1.95857 23.3401 3.11759 23.9964 4.40557C24.6527 5.69354 24.9942 7.08315 24.9999 8.48867C25.0056 9.89419 24.6754 11.2858 24.0296 12.5777C23.3838 13.8696 22.4361 15.0343 21.2451 16M17.9104 4.00983C18.6297 4.58498 19.204 5.28039 19.5978 6.05317C19.9916 6.82596 20.1965 7.65972 20.2 8.50304C20.2034 9.34635 20.0053 10.1813 19.6178 10.9564C19.2303 11.7316 18.6617 12.4304 17.947 13.0098M7.57636 12.0298L9.58664 14.1627C10.6346 15.2746 11.1586 15.8305 11.6176 15.891C12.015 15.9434 12.4166 15.8217 12.6873 15.5668C13 15.2724 13 14.5576 13 13.128V3.92113C13 2.49159 13 1.77682 12.6873 1.48236C12.4166 1.22747 12.015 1.10574 11.6176 1.15813C11.1586 1.21864 10.6346 1.77459 9.58664 2.88648L7.57636 5.0194C7.36465 5.24403 7.2588 5.35634 7.12782 5.43715C7.01179 5.50875 6.88176 5.562 6.74388 5.59438C6.58824 5.63092 6.41982 5.63092 6.08299 5.63092H4.375C3.46756 5.63092 3.01384 5.63092 2.64716 5.73478C1.92557 5.93917 1.35951 6.42449 1.12113 7.04317C1 7.35755 1 7.74656 1 8.52459C1 9.30261 1 9.69162 1.12113 10.006C1.35951 10.6247 1.92557 11.11 2.64716 11.3144C3.01384 11.4182 3.46756 11.4182 4.375 11.4182H6.08299C6.41982 11.4182 6.58824 11.4182 6.74388 11.4548C6.88176 11.4872 7.01179 11.5404 7.12782 11.612C7.2588 11.6928 7.36465 11.8051 7.57636 12.0298Z" stroke="#17E1FF" stroke-width="2" stroke-linecap="round" stroke-linejoin="round"/>
</svg>
